# xmcd
# Track frame offsets:
# 150
# 15472
# 27887
# 50157
# 63675
# 80079
# 82565
# 97127
# 113112
# 127492
# 134495
# 150902
# 164542
#
# Disc length: 2406 seconds
# Revision: 0
# Processed by: cddbd v1.4PL0 Copyright (c) Steve Scherf et al.
# Submitted via: VisiTrax 2.9.5.181 - For more info visit www.synapsa.com
#
DISCID=ae09640d
DTITLE=Ralph and Big Bang Group - Ralph and Big Bang Group
DYEAR=1997
DGENRE=Blues
TTITLE0=En ny dag
TTITLE1=Galen
TTITLE2=För evigt din
TTITLE3=Vad har jag gjort
TTITLE4=Skåne
TTITLE5=Du ( dikt )
TTITLE6=Det bästa jag har
TTITLE7=Skall det sluta så
TTITLE8=Man mår som man förtjänar
TTITLE9=En natt i skogen
TTITLE10=Jagad
TTITLE11=Stanna hos mej
TTITLE12=Alla vet
EXTD=
EXTT0=
EXTT1=
EXTT2=
EXTT3=
EXTT4=
EXTT5=
EXTT6=
EXTT7=
EXTT8=
EXTT9=
EXTT10=
EXTT11=
EXTT12=
PLAYORDER=
